<?xml version="1.0" encoding="UTF-8"?>
<svg xmlns="http://www.w3.org/2000/svg" version="1.1" viewBox="0 0 1202 610">
  <defs>
    <style>
      .cls-1 {
        font-size: 14px;
      }

      .cls-1, .cls-2, .cls-3 {
        fill: #3f3f3f;
        font-family: Verdana-Bold, Verdana;
        font-weight: 700;
      }

      .cls-4 {
        fill: none;
      }

      .cls-4, .cls-5 {
        stroke: #595959;
      }

      .cls-4, .cls-5, .cls-6 {
        stroke-miterlimit: 10;
      }

      .cls-7, .cls-2 {
        font-size: 16px;
      }

      .cls-7, .cls-2, .cls-8, .cls-9, .cls-10, .cls-11, .cls-3 {
        isolation: isolate;
      }

      .cls-7, .cls-8, .cls-9, .cls-10, .cls-11 {
        font-family: Verdana, Verdana;
      }

      .cls-5, .cls-12, .cls-6 {
        fill: #fff;
      }

      .cls-8 {
        font-size: 20px;
      }

      .cls-9 {
        font-size: 24px;
      }

      .cls-10, .cls-3 {
        font-size: 12px;
      }

      .cls-6 {
        stroke: #000;
        stroke-width: .5px;
      }

      .cls-11 {
        font-size: 17px;
      }

      .cls-13 {
        fill: #77aede;
      }
    </style>
  </defs>
  <!-- Generator: Adobe Illustrator 28.6.0, SVG Export Plug-In . SVG Version: 1.2.0 Build 709)  -->
  <g>
    <g id="Layer_1">
      <g id="metField1">
        <path class="cls-13" d="M790.4,40H20.6c-3.1,0-5.6-2.5-5.6-5.6V8.6c0-3.1,2.5-5.6,5.6-5.6h769.8c3.1,0,5.6,2.5,5.6,5.6v25.8c0,3.1-2.5,5.6-5.6,5.6Z"/>
        <text class="cls-2" transform="translate(22.7 26.4)"><tspan x="0" y="0">HEADER</tspan></text>
        <rect class="cls-12" x="104" y="6" width="689" height="31"/>
        <text id="metHeader" class="cls-9" transform="translate(106.7 30.4)"><tspan x="0" y="0">EFHK 101650Z</tspan></text>
      </g>
      <g id="metField2">
        <path class="cls-13" d="M790.4,79H20.6c-3.1,0-5.6-2.5-5.6-5.6v-25.8c0-3.1,2.5-5.6,5.6-5.6h769.8c3.1,0,5.6,2.5,5.6,5.6v25.8c0,3.1-2.5,5.6-5.6,5.6Z"/>
        <text class="cls-2" transform="translate(22.7 65.4)"><tspan x="0" y="0">WIND</tspan></text>
        <rect class="cls-12" x="104" y="45" width="689" height="31"/>
        <text id="metWind" class="cls-9" transform="translate(106.7 69.4)"><tspan x="0" y="0">RWY 04L TDZ 200/5KT END 210/6KT</tspan></text>
      </g>
      <g id="metField3">
        <path class="cls-13" d="M790.4,118H20.6c-3.1,0-5.6-2.5-5.6-5.6v-25.8c0-3.1,2.5-5.6,5.6-5.6h769.8c3.1,0,5.6,2.5,5.6,5.6v25.8c0,3.1-2.5,5.6-5.6,5.6Z"/>
        <text class="cls-2" transform="translate(22.7 104.4)"><tspan x="0" y="0">VIS</tspan></text>
        <rect class="cls-12" x="104" y="84" width="689" height="31"/>
        <text id="metVis" class="cls-9" transform="translate(106.7 108.4)"><tspan x="0" y="0">10KM</tspan></text>
      </g>
      <g id="metField4">
        <path class="cls-13" d="M790.4,157H20.6c-3.1,0-5.6-2.5-5.6-5.6v-25.8c0-3.1,2.5-5.6,5.6-5.6h769.8c3.1,0,5.6,2.5,5.6,5.6v25.8c0,3.1-2.5,5.6-5.6,5.6Z"/>
        <text class="cls-2" transform="translate(22.7 143.4)"><tspan x="0" y="0">RVR</tspan></text>
        <rect class="cls-12" x="104" y="123" width="689" height="31"/>
        <text id="metRvr" class="cls-9" transform="translate(106.7 147.4)"><tspan x="0" y="0">2000M</tspan></text>
      </g>
      <g id="metField5">
        <path class="cls-13" d="M790.4,196H20.6c-3.1,0-5.6-2.5-5.6-5.6v-25.8c0-3.1,2.5-5.6,5.6-5.6h769.8c3.1,0,5.6,2.5,5.6,5.6v25.8c0,3.1-2.5,5.6-5.6,5.6Z"/>
        <text class="cls-2" transform="translate(22.7 182.4)"><tspan x="0" y="0">RVR2</tspan></text>
        <rect class="cls-12" x="104" y="162" width="689" height="31"/>
        <text id="metRvr2" class="cls-9" transform="translate(106.7 186.4)"><tspan x="0" y="0">2000M</tspan></text>
      </g>
      <g id="metField6">
        <path class="cls-13" d="M790.4,235H20.6c-3.1,0-5.6-2.5-5.6-5.6v-25.8c0-3.1,2.5-5.6,5.6-5.6h769.8c3.1,0,5.6,2.5,5.6,5.6v25.8c0,3.1-2.5,5.6-5.6,5.6Z"/>
        <text class="cls-2" transform="translate(22.7 221.4)"><tspan x="0" y="0">RVR3</tspan></text>
        <rect class="cls-12" x="104" y="201" width="689" height="31"/>
        <text id="metRvr3" class="cls-9" transform="translate(106.7 225.4)"><tspan x="0" y="0">2000M</tspan></text>
      </g>
      <g id="metField7">
        <path class="cls-13" d="M790.4,274H20.6c-3.1,0-5.6-2.5-5.6-5.6v-25.8c0-3.1,2.5-5.6,5.6-5.6h769.8c3.1,0,5.6,2.5,5.6,5.6v25.8c0,3.1-2.5,5.6-5.6,5.6Z"/>
        <text class="cls-2" transform="translate(22.7 260.4)"><tspan x="0" y="0">CLOUDS</tspan></text>
        <rect class="cls-12" x="104" y="240" width="689" height="31"/>
        <text id="metClouds" class="cls-9" transform="translate(106.7 264.4)"><tspan x="0" y="0">FEW040</tspan></text>
      </g>
      <g id="metField8">
        <path class="cls-13" d="M790.4,314H20.6c-3.1,0-5.6-2.5-5.6-5.6v-25.8c0-3.1,2.5-5.6,5.6-5.6h769.8c3.1,0,5.6,2.5,5.6,5.6v25.8c0,3.1-2.5,5.6-5.6,5.6Z"/>
        <text class="cls-2" transform="translate(22.7 300.4)"><tspan x="0" y="0">WX</tspan></text>
        <rect class="cls-12" x="104" y="280" width="689" height="31"/>
        <text id="metWx" class="cls-9" transform="translate(106.7 304.4)"><tspan x="0" y="0">CAVOK</tspan></text>
      </g>
      <g id="metField9">
        <path class="cls-13" d="M349.4,354H20.4c-3.1,0-5.6-2.5-5.6-5.6v-25.8c0-3.1,2.5-5.6,5.6-5.6h329c3.1,0,5.6,2.5,5.6,5.6v25.8c0,3.1-2.5,5.6-5.6,5.6Z"/>
        <text class="cls-2" transform="translate(22.5 340.5)"><tspan x="0" y="0">TA</tspan></text>
        <rect class="cls-12" x="103.8" y="320" width="248.2" height="31"/>
        <text id="metTa" class="cls-9" transform="translate(106.5 344.5)"><tspan x="0" y="0">20</tspan></text>
      </g>
      <g id="metField10">
        <path class="cls-13" d="M790,354h-329c-3.1,0-5.6-2.5-5.6-5.6v-25.8c0-3.1,2.5-5.6,5.6-5.6h329c3.1,0,5.6,2.5,5.6,5.6v25.8c0,3.1-2.5,5.6-5.6,5.6Z"/>
        <text class="cls-2" transform="translate(463.2 340.5)"><tspan x="0" y="0">TD</tspan></text>
        <rect class="cls-12" x="544.4" y="320" width="248.2" height="31"/>
        <text id="metTd" class="cls-9" transform="translate(547.2 344.5)"><tspan x="0" y="0">09</tspan></text>
      </g>
      <g id="metField11">
        <path class="cls-13" d="M349.7,394H20.7c-3.1,0-5.6-2.5-5.6-5.6v-25.8c0-3.1,2.5-5.6,5.6-5.6h329c3.1,0,5.6,2.5,5.6,5.6v25.8c0,3.1-2.5,5.6-5.6,5.6Z"/>
        <text class="cls-2" transform="translate(22.9 380.5)"><tspan x="0" y="0">QNH</tspan></text>
        <rect class="cls-12" x="104.1" y="360" width="248.2" height="31"/>
        <text id="metQnh" class="cls-9" transform="translate(106.9 384.5)"><tspan x="0" y="0">1018</tspan></text>
      </g>
      <g id="metField12">
        <path class="cls-13" d="M790.1,394.2h-329c-3.1,0-5.6-2.5-5.6-5.6v-25.8c0-3.1,2.5-5.6,5.6-5.6h329c3.1,0,5.6,2.5,5.6,5.6v25.8c0,3.1-2.5,5.6-5.6,5.6Z"/>
        <text class="cls-2" transform="translate(463.2 380.6)"><tspan x="0" y="0">QFE</tspan></text>
        <rect class="cls-12" x="544.5" y="360.2" width="248.2" height="31"/>
        <text id="metQfe" class="cls-9" transform="translate(547.2 384.6)"><tspan x="0" y="0">1011</tspan></text>
      </g>
      <g id="metField13">
        <path class="cls-13" d="M790.4,434H20.6c-3.1,0-5.6-2.5-5.6-5.6v-25.8c0-3.1,2.5-5.6,5.6-5.6h769.8c3.1,0,5.6,2.5,5.6,5.6v25.8c0,3.1-2.5,5.6-5.6,5.6Z"/>
        <text class="cls-2" transform="translate(22.7 420.4)"><tspan x="0" y="0">TREND</tspan></text>
        <rect class="cls-12" x="104" y="400" width="689" height="31"/>
        <text id="metTrend" class="cls-9" transform="translate(106.7 424.4)"><tspan x="0" y="0">NOSIG</tspan></text>
      </g>
      <g id="metField14">
        <path class="cls-13" d="M1186.4,518H20.6c-3.1,0-5.6-2.5-5.6-5.6v-69.8c0-3.1,2.5-5.6,5.6-5.6h1165.8c3.1,0,5.6,2.5,5.6,5.6v69.8c0,3.1-2.5,5.6-5.6,5.6Z"/>
        <text class="cls-2" transform="translate(22.7 482.4)"><tspan x="0" y="0">TAF</tspan></text>
        <rect class="cls-12" x="104" y="440" width="1084" height="75"/>
        <text id="metTaf" class="cls-7" transform="translate(106.7 456.4)"><tspan x="0" y="0">TAF EFHK 101430Z 1015/1115 30006KT CAVOK=</tspan></text>
      </g>
      <g id="metField15">
        <path class="cls-13" d="M1188.6,602H487.1c-3,0-5.4-2.4-5.4-5.4v-70.2c0-3,2.4-5.4,5.4-5.4h699.5c3,0,5.4,2.4,5.4,5.4v70c0,3.1-1.5,5.6-3.4,5.6Z"/>
        <text class="cls-3" transform="translate(483.7 566.4)"><tspan x="0" y="0">WARNINGS</tspan></text>
        <rect class="cls-12" x="563.6" y="524" width="624.4" height="75"/>
        <text id="metWarnings" class="cls-7" transform="translate(566.3 546.3)"><tspan x="0" y="0">NO ACTUAL WARNINGS</tspan></text>
      </g>
      <g id="metFieldLowWind">
        <rect id="lowwind_x5F_background" class="cls-6" x="15.1" y="521" width="463.3" height="81"/>
        <g id="lowwind_x5F_title">
          <text class="cls-1" transform="translate(22.5 541.4)"><tspan x="0" y="0">LOW WIND EFHK 101130Z</tspan></text>
        </g>
        <text id="lowwind_x5F_altitudes" class="cls-11" transform="translate(22.5 566.4)"><tspan x="0" y="0" xml:space="preserve">500FT      1000FT     2000FT     FL050      FL100</tspan></text>
        <text id="lowwind_x5F_values" class="cls-11" transform="translate(22.5 588.4)"><tspan x="0" y="0" xml:space="preserve">250/20     250/25     250/25     250/30     240/25</tspan></text>
      </g>
      <g id="currentField">
        <g id="irrelevantFields">
          <rect class="cls-5" x="902.5" y="34.5" width="260" height="27"/>
          <rect class="cls-5" x="902.5" y="302.5" width="260" height="27"/>
          <rect class="cls-5" x="904.5" y="111.5" width="123" height="27"/>
          <rect class="cls-5" x="904.5" y="153.5" width="123" height="27"/>
          <rect class="cls-5" x="904.5" y="195.5" width="123" height="27"/>
          <rect class="cls-5" x="1039.5" y="111.5" width="123" height="27"/>
          <rect class="cls-5" x="1039.5" y="153.5" width="123" height="27"/>
          <rect class="cls-5" x="1039.5" y="195.5" width="123" height="27"/>
          <rect class="cls-5" x="904.5" y="253.5" width="118" height="27"/>
          <rect class="cls-5" x="1044.5" y="253.5" width="118" height="27"/>
          <rect class="cls-5" x="904.5" y="391.5" width="118" height="27"/>
          <rect class="cls-5" x="1044.5" y="391.5" width="118" height="27"/>
          <text class="cls-10" transform="translate(865.3 53.4)"><tspan x="0" y="0">VIS</tspan></text>
          <text class="cls-10" transform="translate(844.2 173.4)"><tspan x="0" y="0">CLOUD</tspan></text>
          <text class="cls-10" transform="translate(857.4 271.4)"><tspan x="0" y="0">T/DP</tspan></text>
          <text class="cls-10" transform="translate(1002.9 265.4)"><tspan x="0" y="0">°C</tspan></text>
          <text class="cls-10" transform="translate(1142.9 265.4)"><tspan x="0" y="0">°C</tspan></text>
          <text class="cls-10" transform="translate(1135.7 314.4)"><tspan x="0" y="0">hPa</tspan></text>
          <text class="cls-10" transform="translate(1135.7 403.4)"><tspan x="0" y="0">hPa</tspan></text>
          <text class="cls-10" transform="translate(995.7 403.4)"><tspan x="0" y="0">hPa</tspan></text>
          <text class="cls-10" transform="translate(859.3 320.4)"><tspan x="0" y="0">QNH</tspan></text>
          <text class="cls-10" transform="translate(862.8 392.4)"><tspan x="0" y="0">QFE</tspan></text>
          <text class="cls-7" transform="translate(926.8 372.4)"><tspan x="0" y="0">RWY 04R</tspan></text>
          <text class="cls-7" transform="translate(1029.1 271.4)"><tspan x="0" y="0">/</tspan></text>
          <text class="cls-7" transform="translate(1066.8 372.4)"><tspan x="0" y="0">RWY 04R</tspan></text>
          <path class="cls-4" d="M1171.1,96.5h-349.1c-2.5,0-4.4-2-4.4-4.4V4.4c0-2.5,2-4.4,4.4-4.4h349.1c2.4,0,4.4,2,4.4,4.4v87.6c0,2.5-2,4.4-4.4,4.4Z"/>
          <path class="cls-4" d="M1171.1,242.5h-349.1c-2.5,0-4.4-2-4.4-4.4V100.9c0-2.4,2-4.4,4.4-4.4h349.1c2.4,0,4.4,2,4.4,4.4v137.1c0,2.4-2,4.4-4.4,4.4Z"/>
          <path class="cls-4" d="M1171.1,291.5h-349.1c-2.5,0-4.4-2-4.4-4.4v-40.1c0-2.4,2-4.4,4.4-4.4h349.1c2.4,0,4.4,2,4.4,4.4v40.1c0,2.4-2,4.4-4.4,4.4Z"/>
          <path class="cls-4" d="M1171.1,340.5h-349.1c-2.5,0-4.4-2-4.4-4.4v-40.1c0-2.5,2-4.4,4.4-4.4h349.1c2.4,0,4.4,2,4.4,4.4v40.1c0,2.4-2,4.4-4.4,4.4Z"/>
          <path class="cls-4" d="M1171.1,434.5h-349.1c-2.5,0-4.4-2-4.4-4.4v-85.1c0-2.5,2-4.4,4.4-4.4h349.1c2.4,0,4.4,2,4.4,4.4v85.1c0,2.4-2,4.4-4.4,4.4Z"/>
          <line class="cls-4" x1="891.3" x2="891.3" y2="434.5"/>
        </g>
        <g id="inputFields">
          <text id="metCurrentVis" class="cls-8" transform="translate(1000.7 55.9)"><tspan x="0" y="0">50000</tspan></text>
          <text id="metCurrentQnh" class="cls-8" transform="translate(997.1 323.9)"><tspan x="0" y="0">1018.3</tspan></text>
          <text id="metCurrentQfe04R" class="cls-8" transform="translate(916.1 412.9)"><tspan x="0" y="0">1012.4</tspan></text>
          <text id="metCurrentQfe22L" class="cls-8" transform="translate(1056.1 412.9)"><tspan x="0" y="0">1012.4</tspan></text>
          <text id="metCurrentCloud_id1" class="cls-8" transform="translate(946.5 216.9)"><tspan x="0" y="0">SCT</tspan></text>
          <text id="metCurrentTemp" class="cls-8" transform="translate(927.8 273.9)"><tspan x="0" y="0">19.5</tspan></text>
          <text id="metCurrentDewpoint" class="cls-8" transform="translate(1073.1 273.9)"><tspan x="0" y="0">9.3</tspan></text>
          <text id="metCurrentCloud_id2" class="cls-8" transform="translate(946.5 174.9)"><tspan x="0" y="0">SCT</tspan></text>
          <text id="metCurrentCloud_id3" class="cls-8" transform="translate(946.5 132.9)"><tspan x="0" y="0">SCT</tspan></text>
          <text id="metCurrentCloud_alt3" class="cls-8" transform="translate(1082.4 132.9)"><tspan x="0" y="0">050</tspan></text>
          <text id="metCurrentCloud_alt2" class="cls-8" transform="translate(1082.4 174.9)"><tspan x="0" y="0">040</tspan></text>
          <text id="metCurrentCloud_alt3-2" data-name="metCurrentCloud_alt3" class="cls-8" transform="translate(1082.4 216.9)"><tspan x="0" y="0">030</tspan></text>
        </g>
      </g>
    </g>
  </g>
</svg>