<?xml version="1.0" encoding="utf-8"?>
<!-- Generator: Adobe Illustrator 27.8.1, SVG Export Plug-In . SVG Version: 6.00 Build 0)  -->
<svg version="1.1" xmlns="http://www.w3.org/2000/svg" xmlns:xlink="http://www.w3.org/1999/xlink" x="0px" y="0px"
	 viewBox="0 0 1366 768" style="enable-background:new 0 0 1366 768;" xml:space="preserve">
<style type="text/css">
	.rwycc0{fill:none;}
	.rwycc1{fill:none;stroke:#FFFFFF;stroke-width:1.44;}
	.rwycc2{fill:#D3D3D3;}
	.rwycc3{fill:none;stroke:#B4B4B4;stroke-width:4;stroke-miterlimit:10;}
	.rwycc4{fill:none;stroke:#B4B4B4;stroke-width:4;stroke-miterlimit:10;stroke-dasharray:14.738,14.738;}
	.rwycc5{fill:url(#pattern1);}
	.rwycc6{fill:#FFFFFF;}
	.rwycc7{fill:#F4A625;}
	.rwycc8{font-family:'Arial'; font-width:'bold';}
	.rwycc9{font-size:22px;}
	.rwycc10{fill:none;stroke:#F4A625;stroke-width:2;stroke-miterlimit:10;}
	.rwycc11{fill:#F5A623;}
	.rwycc12{fill:#F5A623;stroke:#000000;stroke-miterlimit:10;}
	.rwycc13{font-size:36px;}
	.rwycc14{font-size:12px;}
	.rwycc15{font-size:18px;}
	.rwycc16{font-size:16px;}
	.rwycc17{fill:url(#pattern2);}
	.rwycc18{fill:url(#pattern3);}
	.rwycc19{font-size:23px;}
	.rwycc20{font-size:11px;}
	.rwycc21{fill:none;stroke:#000000;stroke-width:2;stroke-miterlimit:10;}
	.rwycc22{font-size:24px;}
</style>
<pattern  y="768" width="72" height="72" patternUnits="userSpaceOnUse" id="_x31_0_lpi_20_x25_" viewBox="72.2 -72 72 72" style="overflow:visible;">
	<g>
		<rect x="72.2" y="-72" class="rwycc0" width="72" height="72"/>
		<g>
			<line class="rwycc1" x1="144" y1="-3.6" x2="216.5" y2="-3.6"/>
			<line class="rwycc1" x1="144" y1="-18" x2="216.5" y2="-18"/>
			<line class="rwycc1" x1="144" y1="-32.4" x2="216.5" y2="-32.4"/>
			<line class="rwycc1" x1="144" y1="-46.8" x2="216.5" y2="-46.8"/>
			<line class="rwycc1" x1="144" y1="-61.2" x2="216.5" y2="-61.2"/>
			<line class="rwycc1" x1="144" y1="-10.8" x2="216.5" y2="-10.8"/>
			<line class="rwycc1" x1="144" y1="-25.2" x2="216.5" y2="-25.2"/>
			<line class="rwycc1" x1="144" y1="-39.6" x2="216.5" y2="-39.6"/>
			<line class="rwycc1" x1="144" y1="-54" x2="216.5" y2="-54"/>
			<line class="rwycc1" x1="144" y1="-68.4" x2="216.5" y2="-68.4"/>
		</g>
		<g>
			<line class="rwycc1" x1="72" y1="-3.6" x2="144.5" y2="-3.6"/>
			<line class="rwycc1" x1="72" y1="-18" x2="144.5" y2="-18"/>
			<line class="rwycc1" x1="72" y1="-32.4" x2="144.5" y2="-32.4"/>
			<line class="rwycc1" x1="72" y1="-46.8" x2="144.5" y2="-46.8"/>
			<line class="rwycc1" x1="72" y1="-61.2" x2="144.5" y2="-61.2"/>
			<line class="rwycc1" x1="72" y1="-10.8" x2="144.5" y2="-10.8"/>
			<line class="rwycc1" x1="72" y1="-25.2" x2="144.5" y2="-25.2"/>
			<line class="rwycc1" x1="72" y1="-39.6" x2="144.5" y2="-39.6"/>
			<line class="rwycc1" x1="72" y1="-54" x2="144.5" y2="-54"/>
			<line class="rwycc1" x1="72" y1="-68.4" x2="144.5" y2="-68.4"/>
		</g>
		<g>
			<line class="rwycc1" x1="0" y1="-3.6" x2="72.5" y2="-3.6"/>
			<line class="rwycc1" x1="0" y1="-18" x2="72.5" y2="-18"/>
			<line class="rwycc1" x1="0" y1="-32.4" x2="72.5" y2="-32.4"/>
			<line class="rwycc1" x1="0" y1="-46.8" x2="72.5" y2="-46.8"/>
			<line class="rwycc1" x1="0" y1="-61.2" x2="72.5" y2="-61.2"/>
			<line class="rwycc1" x1="0" y1="-10.8" x2="72.5" y2="-10.8"/>
			<line class="rwycc1" x1="0" y1="-25.2" x2="72.5" y2="-25.2"/>
			<line class="rwycc1" x1="0" y1="-39.6" x2="72.5" y2="-39.6"/>
			<line class="rwycc1" x1="0" y1="-54" x2="72.5" y2="-54"/>
			<line class="rwycc1" x1="0" y1="-68.4" x2="72.5" y2="-68.4"/>
		</g>
	</g>
</pattern>
<g id="background">
	<rect class="rwycc2" width="1366" height="768"/>
	
		<image style="display:none;overflow:visible;" width="1754" height="1241" xlink:href="../../Desktop/rwycc.png"  transform="matrix(0.6401 0 0 0.6401 0 0)">
	</image>
</g>
<g id="RWYPart1">
	<g id="staticElements">
		<rect x="59.1" y="11.1" width="348.5" height="148.6"/>
		<g>
			<g>
				<line class="rwycc3" x1="233.7" y1="11.1" x2="233.7" y2="19.1"/>
				<line class="rwycc4" x1="233.7" y1="33.9" x2="233.7" y2="144.4"/>
				<line class="rwycc3" x1="233.7" y1="151.8" x2="233.7" y2="159.8"/>
			</g>
		</g>
		
		<pattern  id="pattern1" xlink:href="#_x31_0_lpi_20_x25_" patternTransform="matrix(0.7071 -0.7071 0.7071 0.7071 3983.1824 -7743.5845)"></pattern>
		<rect id="pattern" x="84.5" y="11.1" style="fill:url(#pattern1);" width="297.4" height="148.6"/>
		<rect x="13.7" y="185" class="rwycc6" width="37.1" height="40.8"/>
		<rect x="413.6" y="185" class="rwycc6" width="39.1" height="40.8"/>
		<text id="part" transform="matrix(1 0 0 1 24.8268 213.1482)" class="rwycc7 rwycc8 rwycc9">C</text>
		<rect x="13.7" y="11.1" class="rwycc10" width="439.1" height="148.6"/>
		<polyline class="rwycc10" points="13.7,159.8 13.7,225.8 452.8,225.8 452.8,159.8 		"/>
		<line class="rwycc10" x1="13.7" y1="185" x2="452.8" y2="185"/>
		<line class="rwycc10" x1="50.8" y1="185" x2="50.8" y2="225.8"/>
		<line class="rwycc10" x1="159.5" y1="185" x2="159.5" y2="225.8"/>
		<line class="rwycc10" x1="268.7" y1="185" x2="268.7" y2="225.8"/>
		<line class="rwycc10" x1="377.2" y1="185" x2="377.2" y2="225.8"/>
		<line class="rwycc10" x1="413.6" y1="185" x2="413.6" y2="225.8"/>
		<circle class="rwycc11" cx="72.2" cy="22.7" r="5.1"/>
		<circle class="rwycc11" cx="72.2" cy="43.6" r="5.1"/>
		<circle class="rwycc11" cx="72.2" cy="64.5" r="5.1"/>
		<circle class="rwycc11" cx="72.2" cy="85.5" r="5.1"/>
		<circle class="rwycc11" cx="72.2" cy="106.4" r="5.1"/>
		<circle class="rwycc11" cx="72.2" cy="127.3" r="5.1"/>
		<circle class="rwycc11" cx="72.2" cy="148.2" r="5.1"/>
		<circle class="rwycc11" cx="395.1" cy="22.7" r="5.1"/>
		<circle class="rwycc11" cx="395.1" cy="43.6" r="5.1"/>
		<circle class="rwycc11" cx="395.1" cy="64.5" r="5.1"/>
		<circle class="rwycc11" cx="395.1" cy="85.5" r="5.1"/>
		<circle class="rwycc11" cx="395.1" cy="106.4" r="5.1"/>
		<circle class="rwycc11" cx="395.1" cy="127.3" r="5.1"/>
		<circle class="rwycc11" cx="395.1" cy="148.2" r="5.1"/>
		<rect x="92" y="107.7" class="rwycc12" width="43.2" height="43.2"/>
		<rect x="331.7" y="107.7" class="rwycc12" width="43.2" height="43.2"/>
		<rect x="198.7" y="71.7" class="rwycc12" width="70" height="28"/>
	</g>
	<g id="inputFields">
		<g id="contaminantWet">
			<path d="M350.5,111.5c0,0,1.2,12.7-4,20.2c-5.2,7.5-0.6,16.2,5.1,15.3c5.7-0.8,13.7-8.8,9.6-21.4S350.5,111.5,350.5,111.5z"/>
		</g>
		<text id="coverage_1" transform="matrix(1 0 0 1 205.5709 94.3508)" class="rwycc8 rwycc9">100%</text>
		<text id="rwyccValue_1" transform="matrix(1 0 0 1 385.0748 219.4207)" class="rwycc8 rwycc13">3</text>
		<text id="coveragePercent1" transform="matrix(1 0 0 1 98.2195 127.28)"><tspan x="0" y="0" class="rwycc8 rwycc14">100% </tspan><tspan x="1.3" y="15" class="rwycc8 rwycc14">1mm</tspan></text>
		<text id="lfc_1" transform="matrix(1 0 0 1 77.3143 213.0525)" class="rwycc8 rwycc15">LFC</text>
		<text id="ldg_1" transform="matrix(1 0 0 1 180.8851 213.0525)" class="rwycc8 rwycc15">LDG 3</text>
		<text id="rcam_1" transform="matrix(1 0 0 1 284.2377 213.2442)" class="rwycc8 rwycc15">RCAM 3</text>
		<text id="contaminantText1" transform="matrix(1 0 0 1 152.8603 177.9196)" class="rwycc8 rwycc16">SLIPPERY WET 1mm</text>
	</g>
</g>
<g id="RWYPart2">
	<rect x="59.5" y="234.2" width="348.5" height="148.6"/>
	<g>
		<g>
			<line class="rwycc3" x1="234.2" y1="234.2" x2="234.2" y2="242.2"/>
			<line class="rwycc4" x1="234.2" y1="256.9" x2="234.2" y2="367.5"/>
			<line class="rwycc3" x1="234.2" y1="374.8" x2="234.2" y2="382.8"/>
		</g>
	</g>
	
	<pattern id="pattern2" xlink:href="#_x31_0_lpi_20_x25_" patternTransform="matrix(0.7071 -0.7071 0.7071 0.7071 4034.5581 -7673.2603)"></pattern>
	<rect id="pattern2" x="85" y="234.2" style="fill:url(#pattern2);" width="297.4" height="148.6"/>
	<rect x="14.6" y="408.1" class="rwycc6" width="37.1" height="40.8"/>
	<rect x="414.1" y="408.1" class="rwycc6" width="39.1" height="40.8"/>
	
	<text transform="matrix(1 0 0 1 25.2908 436.2073)" class="rwycc7 rwycc8 rwycc9">B</text>
	<rect x="14.2" y="234.2" class="rwycc10" width="439.1" height="148.6"/>
	<polyline class="rwycc10" points="14.2,382.8 14.2,448.8 453.2,448.8 453.2,382.8"/>
	<line class="rwycc10" x1="14.2" y1="408.1" x2="453.2" y2="408.1"/>
	<line class="rwycc10" x1="51.3" y1="408.1" x2="51.3" y2="448.8"/>
	<line class="rwycc10" x1="160" y1="408.1" x2="160" y2="448.8"/>
	<line class="rwycc10" x1="269.2" y1="408.1" x2="269.2" y2="448.8"/>
	<line class="rwycc10" x1="377.6" y1="408.1" x2="377.6" y2="448.8"/>
	<line class="rwycc10" x1="414.1" y1="408.1" x2="414.1" y2="448.8"/>
	<circle class="rwycc11" cx="72.7" cy="245.8" r="5.1"/>
	<circle class="rwycc11" cx="72.7" cy="266.7" r="5.1"/>
	<circle class="rwycc11" cx="72.7" cy="287.6" r="5.1"/>
	<circle class="rwycc11" cx="72.7" cy="308.5" r="5.1"/>
	<circle class="rwycc11" cx="72.7" cy="329.4" r="5.1"/>
	<circle class="rwycc11" cx="72.7" cy="350.3" r="5.1"/>
	<circle class="rwycc11" cx="72.7" cy="371.3" r="5.1"/>
	<circle class="rwycc11" cx="395.5" cy="245.8" r="5.1"/>
	<circle class="rwycc11" cx="395.5" cy="266.7" r="5.1"/>
	<circle class="rwycc11" cx="395.5" cy="287.6" r="5.1"/>
	<circle class="rwycc11" cx="395.5" cy="308.5" r="5.1"/>
	<circle class="rwycc11" cx="395.5" cy="329.4" r="5.1"/>
	<circle class="rwycc11" cx="395.5" cy="350.3" r="5.1"/>
	<circle class="rwycc11" cx="395.5" cy="371.3" r="5.1"/>
	<rect x="92.4" y="330.8" class="rwycc12" width="43.2" height="43.2"/>
	<rect x="332.2" y="330.8" class="rwycc12" width="43.2" height="43.2"/>
	<rect x="199.2" y="294.8" class="rwycc12" width="70" height="28"/>
	<path d="M351,334.6c0,0,1.2,12.7-4,20.2c-5.2,7.5-0.6,16.2,5.1,15.3s13.7-8.8,9.6-21.4C357.5,336.2,351,334.6,351,334.6z"/>
	
	<text id="coverage_2" transform="matrix(1 0 0 1 206.0349 317.4099)" class="rwycc8 rwycc9">100%</text>
	<text id="rwyccValue_2" transform="matrix(1 0 0 1 385.5388 442.4799)" class="rwycc8 rwycc13">3</text>
	<text id="coveragePercent2" transform="matrix(1 0 0 1 98.6835 350.3391)"><tspan x="0" y="0" class="rwycc8 rwycc14">100% </tspan><tspan x="1.3" y="15" class="rwycc8 rwycc14">1mm</tspan></text>
	<text id="lfc_2" transform="matrix(1 0 0 1 77.7783 436.1116)" class="rwycc8 rwycc15">LFC</text>
	<text id="ldg_2" transform="matrix(1 0 0 1 181.3491 436.1116)" class="rwycc8 rwycc15">LDG 3</text>
	<text id="rcam_2" transform="matrix(1 0 0 1 284.7017 436.3033)" class="rwycc8 rwycc15">RCAM 3</text>
	<text id="contaminantText2" transform="matrix(1 0 0 1 153.3243 400.9787)" class="rwycc8 rwycc16">SLIPPERY WET 1mm</text>
</g>
<g id="RWYPart3">
	<rect x="60" y="454.8" width="348.5" height="148.6"/>
	<g>
		<g>
			<line class="rwycc3" x1="234.6" y1="454.8" x2="234.6" y2="462.8"/>
			<line class="rwycc4" x1="234.6" y1="477.5" x2="234.6" y2="588.1"/>
			<line class="rwycc3" x1="234.6" y1="595.4" x2="234.6" y2="603.4"/>
		</g>
	</g>
	
	<pattern id="pattern3" xlink:href="#_x31_0_lpi_20_x25_" patternTransform="matrix(0.7071 -0.7071 0.7071 0.7071 3984.1104 -7707.2153)"></pattern>
	<rect x="85.4" y="454.8" style="fill:url(#pattern3);" width="297.4" height="148.6"/>
	<rect x="414.6" y="628.7" class="rwycc6" width="39.1" height="40.8"/>
	<rect x="14.6" y="628.7" class="rwycc6" width="37.1" height="40.8"/>
	
	<text transform="matrix(1 0 0 1 25.7548 656.8107)" class="rwycc7 rwycc8 rwycc9">A</text>
	<rect x="14.6" y="454.8" class="rwycc10" width="439.1" height="148.6"/>
	<polyline class="rwycc10" points="14.6,603.4 14.6,669.4 453.7,669.4 453.7,603.4"/>
	<line class="rwycc10" x1="14.6" y1="628.7" x2="453.7" y2="628.7"/>
	<line class="rwycc10" x1="51.8" y1="628.7" x2="51.8" y2="669.4"/>
	<line class="rwycc10" x1="160.5" y1="628.7" x2="160.5" y2="669.4"/>
	<line class="rwycc10" x1="269.6" y1="628.7" x2="269.6" y2="669.4"/>
	<line class="rwycc10" x1="378.1" y1="628.7" x2="378.1" y2="669.4"/>
	<line class="rwycc10" x1="414.6" y1="628.7" x2="414.6" y2="669.4"/>
	<circle class="rwycc11" cx="73.2" cy="466.4" r="5.1"/>
	<circle class="rwycc11" cx="73.2" cy="487.3" r="5.1"/>
	<circle class="rwycc11" cx="73.2" cy="508.2" r="5.1"/>
	<circle class="rwycc11" cx="73.2" cy="529.1" r="5.1"/>
	<circle class="rwycc11" cx="73.2" cy="550" r="5.1"/>
	<circle class="rwycc11" cx="73.2" cy="570.9" r="5.1"/>
	<circle class="rwycc11" cx="73.2" cy="591.9" r="5.1"/>
	<circle class="rwycc11" cx="396" cy="466.4" r="5.1"/>
	<circle class="rwycc11" cx="396" cy="487.3" r="5.1"/>
	<circle class="rwycc11" cx="396" cy="508.2" r="5.1"/>
	<circle class="rwycc11" cx="396" cy="529.1" r="5.1"/>
	<circle class="rwycc11" cx="396" cy="550" r="5.1"/>
	<circle class="rwycc11" cx="396" cy="570.9" r="5.1"/>
	<circle class="rwycc11" cx="396" cy="591.9" r="5.1"/>
	<rect x="92.9" y="551.4" class="rwycc12" width="43.2" height="43.2"/>
	<rect x="332.6" y="551.4" class="rwycc12" width="43.2" height="43.2"/>
	<rect x="199.6" y="515.4" class="rwycc12" width="70" height="28"/>
	<path d="M351.5,555.2c0,0,1.2,12.7-4,20.2c-5.2,7.5-0.6,16.2,5.1,15.3c5.7-0.8,13.7-8.8,9.6-21.4S351.5,555.2,351.5,555.2z"/>
	
	<text id="coverage_3" transform="matrix(1 0 0 1 206.4989 538.0132)" class="rwycc8 rwycc9">100%</text>
	<text id="rwyccValue_3" transform="matrix(1 0 0 1 386.0028 663.0831)" class="rwycc8 rwycc13">3</text>
	<text id="coveragePercent3_1" transform="matrix(1 0 0 1 99.1475 570.9424)"><tspan x="0" y="0" class="rwycc8 rwycc14">100% </tspan><tspan x="1.3" y="15" class="rwycc8 rwycc14">1mm</tspan></text>
	<text id="lfc_3" transform="matrix(1 0 0 1 78.2423 656.7149)" class="rwycc8 rwycc15">LFC</text>
	<text id="ldg_3" transform="matrix(1 0 0 1 181.8131 656.7149)" class="rwycc8 rwycc15">LDG 3</text>
	<text id="rcam_3" transform="matrix(1 0 0 1 285.1657 656.9066)" class="rwycc8 rwycc15">RCAM 3</text>
	<text id="contaminantText3" transform="matrix(1 0 0 1 153.7883 621.582)" class="rwycc8 rwycc16">SLIPPERY WET 1mm</text>
</g>
<g id="AssesmentPart">
	<g id="static">
		<text id="text" transform="matrix(1 0 0 1 831.0249 39.96)" class="rwycc8 rwycc19">TAKEOFF SIGNIF.CONT</text>
		<text transform="matrix(1 0 0 1 525.4333 85.21)" class="rwycc8 rwycc20">VALID</text>
		<text transform="matrix(1 0 0 1 698.4628 178.394)" class="rwycc8 rwycc20">NIL</text>
		<text transform="matrix(1 0 0 1 871.9885 178.394)" class="rwycc8 rwycc20">NIL</text>
		<text transform="matrix(1 0 0 1 990.4108 178.394)" class="rwycc8 rwycc20">NIL</text>
		<text transform="matrix(1 0 0 1 698.4628 292.041)" class="rwycc8 rwycc20">NIL</text>
		<text transform="matrix(1 0 0 1 871.9885 292.041)" class="rwycc8 rwycc20">NIL</text>
		<text transform="matrix(1 0 0 1 990.4108 292.041)" class="rwycc8 rwycc20">NIL</text>
		<text transform="matrix(1 0 0 1 698.4628 404.4181)" class="rwycc8 rwycc20">NIL</text>
		<text transform="matrix(1 0 0 1 871.9885 404.4181)" class="rwycc8 rwycc20">NIL</text>
		<text transform="matrix(1 0 0 1 990.4108 404.4181)" class="rwycc8 rwycc20">NIL</text>
		<text transform="matrix(1 0 0 1 533.3274 144.3939)"><tspan x="0" y="0" class="rwycc8 rwycc20">REP. RWYCC:</tspan><tspan x="3.1" y="17" class="rwycc8 rwycc20">RCAM CONT:</tspan><tspan x="23.8" y="34" class="rwycc8 rwycc20">CONT #2:</tspan><tspan x="23.8" y="51" class="rwycc8 rwycc20">CONT #1:</tspan></text>
		<text transform="matrix(1 0 0 1 533.3274 258.0409)"><tspan x="0" y="0" class="rwycc8 rwycc20">REP. RWYCC:</tspan><tspan x="3.1" y="17" class="rwycc8 rwycc20">RCAM CONT:</tspan><tspan x="23.8" y="34" class="rwycc8 rwycc20">CONT #2:</tspan><tspan x="23.8" y="51" class="rwycc8 rwycc20">CONT #1:</tspan></text>
		<text transform="matrix(1 0 0 1 533.3274 370.2751)"><tspan x="0" y="0" class="rwycc8 rwycc20">REP. RWYCC:</tspan><tspan x="3.1" y="17" class="rwycc8 rwycc20">RCAM CONT:</tspan><tspan x="23.8" y="34" class="rwycc8 rwycc20">CONT #2:</tspan><tspan x="23.8" y="51" class="rwycc8 rwycc20">CONT #1:</tspan></text>
		<text transform="matrix(1 0 0 1 526.5918 483.8418)"><tspan x="0" y="0" class="rwycc8 rwycc20">REDUCED WIDTH (M):</tspan><tspan x="0" y="15.5" class="rwycc8 rwycc20">REDUCED LENGTH LDA - A/C (M):</tspan><tspan x="0" y="31" class="rwycc8 rwycc20">SNOWBANK DISTANCES L/R (M):</tspan><tspan x="0" y="46.5" class="rwycc8 rwycc20">SNOWBANK HEIGHTS L/R (CM):</tspan><tspan x="0" y="62" class="rwycc8 rwycc20">DRIFTING SNOW:</tspan><tspan x="0" y="77.5" class="rwycc8 rwycc20">LOOSE SAND:</tspan><tspan x="0" y="93" class="rwycc8 rwycc20">CHEMICALLY TREATED:</tspan><tspan x="0" y="108.5" class="rwycc8 rwycc20">ADJ. SNOWBANKS:</tspan><tspan x="0" y="124" class="rwycc8 rwycc20">OBSCURED LIGHTS:</tspan><tspan x="0" y="139.5" class="rwycc8 rwycc20">COMMENT SNOWTAM:</tspan><tspan x="0" y="155" class="rwycc8 rwycc20">COMMENT ATIS:</tspan><tspan x="0" y="170.5" class="rwycc8 rwycc20">COMMENT ‘TORNI’:</tspan></text>
		<text transform="matrix(1 0 0 1 525.4333 69.889)" class="rwycc8 rwycc20">REPORTED</text>
		<text transform="matrix(1 0 0 1 525.4333 55.2024)" class="rwycc8 rwycc20">ASSESSED</text>
		<text transform="matrix(1 0 0 1 519.0059 127.2797)" class="rwycc8 rwycc19">THIRD C</text>
		<text transform="matrix(1 0 0 1 519.0059 239.1128)" class="rwycc8 rwycc19">THIRD B</text>
		<text transform="matrix(1 0 0 1 519.0059 352.6887)" class="rwycc8 rwycc19">THIRD A</text>
		<rect x="512.8" y="11.1" class="rwycc21" width="292.1" height="82.9"/>
		<rect x="818.7" y="11.1" class="rwycc21" width="292.1" height="82.9"/>
		<rect x="512.8" y="101.7" class="rwycc21" width="598" height="104.9"/>
		<rect x="512.8" y="214.2" class="rwycc21" width="598" height="104.9"/>
		<rect x="512.8" y="326.8" class="rwycc21" width="598" height="104.9"/>
		<rect x="512.8" y="439.4" class="rwycc21" width="598" height="222.3"/>
	</g>
	<text id="bottomRows" transform="matrix(1 0 0 1 946.7553 483.8418)">
	<tspan x="0" y="0" class="rwycc8 rwycc20">NIL</tspan><tspan x="-54.4" y="15.5" class="rwycc8 rwycc20">NIL - NIL / NIL</tspan><tspan x="-26.9" y="31" class="rwycc8 rwycc20">NIL / NIL</tspan><tspan x="-26.9" y="46.5" class="rwycc8 rwycc20">NIL / NIL</tspan><tspan x="1.2" y="62" class="rwycc8 rwycc20">NO</tspan><tspan x="1.2" y="77.5" class="rwycc8 rwycc20">NO</tspan><tspan x="1.2" y="93" class="rwycc8 rwycc20">NO</tspan><tspan x="1.2" y="108.5" class="rwycc8 rwycc20">NO</tspan><tspan x="1.2" y="124" class="rwycc8 rwycc20">NO</tspan><tspan x="0" y="139.5" class="rwycc8 rwycc20">NIL</tspan><tspan x="0" y="155" class="rwycc8 rwycc20">NIL</tspan><tspan x="0" y="170.5" class="rwycc8 rwycc20">NIL</tspan></text>
	<text id="rwycc1" transform="matrix(1 0 0 1 870.993 144.3939)" class="rwycc8 rwycc20">RWYCC #3</text>
	<text id="contaminantTypeSimple2" transform="matrix(1 0 0 1 698.0779 161.3939)" class="rwycc8 rwycc20">SLIPPERY WET</text>
	<text id="contaminantType2" transform="matrix(1 0 0 1 698.0779 195.3939)" class="rwycc8 rwycc20">SLIPPERY WET</text>
	<text id="depth2" transform="matrix(1 0 0 1 871.6036 161.3939)" class="rwycc8 rwycc20">1 MM</text>
	<text id="depth2_1" transform="matrix(1 0 0 1 871.6036 195.3939)" class="rwycc8 rwycc20">1 MM</text>
	<text id="coverage2" transform="matrix(1 0 0 1 990.0258 161.3939)" class="rwycc8 rwycc20">100%</text>
	<text id="coverage2_1" transform="matrix(1 0 0 1 990.0258 195.3939)" class="rwycc8 rwycc20">100%</text>
	<text id="contaminantTypeSimple3" transform="matrix(1 0 0 1 698.0779 275.0409)" class="rwycc8 rwycc20">SLIPPERY WET</text>
	<text id="contaminantType3" transform="matrix(1 0 0 1 698.0779 309.0409)" class="rwycc8 rwycc20">SLIPPERY WET</text>
	<text id="depth3" transform="matrix(1 0 0 1 871.6036 275.0409)" class="rwycc8 rwycc20">1 MM</text>
	<text id="depth3_1" transform="matrix(1 0 0 1 871.6036 309.0409)" class="rwycc8 rwycc20">1 MM</text>
	<text id="coverage3" transform="matrix(1 0 0 1 990.0258 275.0409)" class="rwycc8 rwycc20">100%</text>
	<text id="coverage3_1" transform="matrix(1 0 0 1 990.0258 309.0409)" class="rwycc8 rwycc20">100%</text>
	<text id="contaminantTypeSimple1" transform="matrix(1 0 0 1 698.0779 387.418)" class="rwycc8 rwycc20">SLIPPERY WET</text>
	<text id="contaminantType1" transform="matrix(1 0 0 1 698.0779 421.418)" class="rwycc8 rwycc20">SLIPPERY WET</text>
	<text id="depth1" transform="matrix(1 0 0 1 871.6036 387.418)" class="rwycc8 rwycc20">1 MM</text>
	<text id="depth1_1" transform="matrix(1 0 0 1 871.6036 421.418)" class="rwycc8 rwycc20">1 MM</text>
	<text id="coverage1" transform="matrix(1 0 0 1 990.0258 387.418)" class="rwycc8 rwycc20">100%</text>
	<text id="coverage1_1" transform="matrix(1 0 0 1 990.0258 421.418)" class="rwycc8 rwycc20">100%</text>
	<text id="rwycc2" transform="matrix(1 0 0 1 870.993 258.0407)" class="rwycc8 rwycc20">RWYCC #3</text>
	<text id="rwycc3" transform="matrix(1 0 0 1 870.993 370.4071)" class="rwycc8 rwycc20">RWYCC #3</text>
	<text id="nil" transform="matrix(1 0 0 1 617.3337 55.2024)" class="rwycc8 rwycc20">13.09.2023    16:18 UTC</text>
	<text id="date_time" transform="matrix(1 0 0 1 617.3337 70.0211)" class="rwycc8 rwycc20">13.09.2023    16:18 UTC</text>
	<text id="date_time_2" transform="matrix(1 0 0 1 617.3337 85.21)" class="rwycc8 rwycc20">NIL</text>
	<text id="to_signif_cont" transform="matrix(1 0 0 1 831.5309 57.7966)" class="rwycc8 rwycc14">THIN RWYCC 3/3/3.</text>
	<text id="rwyNumber2" transform="matrix(1 0 0 1 519.0059 465.6039)" class="rwycc8 rwycc19">RUNWAY 04R</text>
	<text id="rwyNumber" transform="matrix(1 0 0 1 519.0059 36.6357)" class="rwycc8 rwycc19">EFHK 04R</text>
</g>
<g id="RunwayWidthPart">
	<rect x="56.5" y="718.1" width="354.5" height="40"/>
	<text id="rwyNumber3" transform="matrix(1 0 0 1 212.2283 707.8934)" class="rwycc8 rwycc22">04R</text>
	<text id="width2" transform="matrix(1 0 0 1 213.2361 743.7399)" class="rwycc6 rwycc8 rwycc15">60 m</text>
</g>
</svg>
