<?xml version="1.0" encoding="utf-8"?>
<!-- Generator: Adobe Illustrator 27.7.0, SVG Export Plug-In . SVG Version: 6.00 Build 0)  -->
<svg version="1.1" id="Layer_1" xmlns="http://www.w3.org/2000/svg" xmlns:xlink="http://www.w3.org/1999/xlink" x="0px" y="0px"
	 viewBox="0 0 1108.78 905.49" style="enable-background:new 0 0 1108.78 905.49;" xml:space="preserve">
<style type="text/css">
	.st0{font-family:'ArialMT';}
	.st1{font-size:15px;}
	.st2{fill:#FFFFFF;}
	.st3{font-family:'Arial-BoldMT';}
	.st4{font-size:52px;}
	.st5{font-size:19px;}
	.st6{fill:none;stroke:#000000;stroke-width:1.5;stroke-miterlimit:10;}
	.st7{font-size:18px;}
	.st8{font-size:26px;}
</style>
<g id="rwycc_x5F_thirds_x5F_bg">
	
		<image style="display:none;overflow:visible;enable-background:new    ;" width="1766" height="1275" xlink:href="2E11896354601879.png"  transform="matrix(0.75 0 0 0.75 0 -20.4577)">
	</image>
	
		<image style="overflow:visible;enable-background:new    ;" width="386" height="229" id="rwycc_x5F_first_x5F_bg" xlink:href="2E1189635460187B.png"  transform="matrix(0.75 0 0 0.75 48.7998 191.5541)">
	</image>
	
		<image style="overflow:visible;enable-background:new    ;" width="386" height="229" id="rwycc_x5F_second_x5F_bg" xlink:href="2E11896354601879.png"  transform="matrix(0.75 0 0 0.75 48.7998 401.1367)">
	</image>
	
		<image style="overflow:visible;enable-background:new    ;" width="386" height="229" id="rwycc_x5F_third_x5F_bg" xlink:href="2E1189635460187F.png"  transform="matrix(0.75 0 0 0.75 48.7998 609.3835)">
	</image>
	<rect id="rwycc_x5F_width_x5F_bg" x="48.8" y="850.81" width="289.5" height="37.21"/>
	<text id="rwycc_x5F_first_x5F_contaminant" transform="matrix(1 0 0 1 158.3952 378.2822)" class="st0 st1">WET 1mm</text>
	<text id="rwycc_x5F_first_x5F_code" transform="matrix(1 0 0 1 144.2504 294.3724)" class="st2 st3 st4">5</text>
	<text id="rwycc_x5F_second_x5F_code" transform="matrix(1 0 0 1 144.2504 505.8141)" class="st2 st3 st4">5</text>
	<text id="rwycc_x5F_third_x5F_code" transform="matrix(1 0 0 1 144.2504 713.0352)" class="st2 st3 st4">5</text>
	<text id="rwycc_x5F_second_x5F_contaminant" transform="matrix(1 0 0 1 158.3952 587.644)" class="st0 st1">WET 1mm</text>
	<text id="rwycc_x5F_third_x5F_contaminant" transform="matrix(1 0 0 1 158.3952 796.7275)" class="st0 st1">WET 1mm</text>
	<text id="rwycc_x5F_width" transform="matrix(1 0 0 1 175.3276 876.6467)" class="st2 st0 st5">60m</text>
</g>
<g id="Layer_2_00000078038162110748866890000007280833113254541956_">
	<rect id="bg_x5F_rect1" x="14.16" y="14.17" class="st6" width="359.3" height="122.29"/>
	<text id="rwycc_x5F_assessment" transform="matrix(1 0 0 1 29.7479 71.4994)" class="st0 st7">ASSESSED    00.00.2023    00:00 UTC</text>
	<text transform="matrix(1 0 0 1 395.5027 68.9734)" class="st0 st7">RWY 04R</text>
	<text transform="matrix(1 0 0 1 395.5027 90.5734)" class="st0 st7">RUNWAY 04R CONDITION REPORT AT 00:00 UTC</text>
	<text transform="matrix(1 0 0 1 395.5027 129.4205)" class="st0 st7">CONDITION CODES:</text>
	<text transform="matrix(1 0 0 1 395.5027 151.0205)" class="st0 st7">5, 5, 5</text>
	<text transform="matrix(1 0 0 1 395.5027 187.7215)" class="st0 st7">CONTAMINANTS:</text>
	<text transform="matrix(1 0 0 1 395.5027 209.3215)" class="st0 st7">FIRST PART 100 PERCENT WET</text>
	<text transform="matrix(1 0 0 1 395.5027 230.9215)" class="st0 st7">SECOND PART 100 PERCENT WET</text>
	<text transform="matrix(1 0 0 1 395.5027 252.5215)" class="st0 st7">THIRD PART 100 PERCENT WET</text>
	<text transform="matrix(1 0 0 1 395.5027 274.1215)" class="st0 st7">TAKEOFF SIGNIFICANT CONTAMINANT THIN</text>
	<text transform="matrix(1 0 0 1 395.5027 314.3234)" class="st0 st7">RWY 22L</text>
	<text transform="matrix(1 0 0 1 395.5027 335.9234)" class="st0 st7">RUNWAY 04R CONDITION REPORT AT 00:00 UTC</text>
	<text transform="matrix(1 0 0 1 395.5027 374.7705)" class="st0 st7">CONDITION CODES:</text>
	<text transform="matrix(1 0 0 1 395.5027 396.3705)" class="st0 st7">5, 5, 5</text>
	<text transform="matrix(1 0 0 1 395.5027 433.0715)" class="st0 st7">CONTAMINANTS:</text>
	<text transform="matrix(1 0 0 1 395.5027 454.6715)" class="st0 st7">FIRST PART 100 PERCENT WET</text>
	<text transform="matrix(1 0 0 1 395.5027 476.2715)" class="st0 st7">SECOND PART 100 PERCENT WET</text>
	<text transform="matrix(1 0 0 1 395.5027 497.8715)" class="st0 st7">THIRD PART 100 PERCENT WET</text>
	<text transform="matrix(1 0 0 1 395.5027 519.4715)" class="st0 st7">TAKEOFF SIGNIFICANT CONTAMINANT THIN</text>
	<text id="atis_x5F_apn" transform="matrix(1 0 0 1 395.5027 591.3802)" class="st0 st7">NIL</text>
	<text id="lfc_x5F_friction_x5F_1" transform="matrix(1 0 0 1 395.5027 704.2794)" class="st0 st7">FRICTION COEFFICIENTS NR/NR/NR</text>
	<text id="lfc_x5F_friction_x5F_2" transform="matrix(1 0 0 1 395.5027 774.8725)" class="st0 st7">FRICTION COEFFICIENTS NR/NR/NR</text>
	<text id="atis_x5F_title" transform="matrix(1 0 0 1 397.7513 44.3378)" class="st3 st8">ATIS READOUT</text>
	<text id="atis_x5F_title2" transform="matrix(1 0 0 1 397.7513 565.1136)" class="st3 st8">TWY &amp; APN</text>
	<text id="lfc_x5F_title" transform="matrix(1 0 0 1 397.7513 638.5674)" class="st3 st8">LFC READOUT</text>
	<text id="lfc_x5F_title_x5F_rwy1" transform="matrix(1 0 0 1 397.7513 679.3109)" class="st3 st8">RWY 04R</text>
	<text id="lfc_x5F_title_x5F_rwy2" transform="matrix(1 0 0 1 397.7513 750.2987)" class="st3 st8">RWY 22l</text>
	<text id="RWY_x5F_title" transform="matrix(1 0 0 1 22.3721 44.3378)" class="st3 st8">EFHK 04R</text>
	<text id="rwycc_x5F_title" transform="matrix(1 0 0 1 144.7023 178.8418)" class="st3 st8">RWYCC</text>
	<text id="rwy_x5F_title" transform="matrix(1 0 0 1 169.9596 843.4178)" class="st0 st8">04R</text>
	<text id="rwycc_x5F_report" transform="matrix(1 0 0 1 29.7479 94.7469)" class="st0 st7">REPORTED    00.00.2023    00:00 UTC</text>
	<text id="rwycc_x5F_validity" transform="matrix(1 0 0 1 29.7479 117.8855)" class="st0 st7">VALID             NIL                 NIL</text>
	<rect id="bg_x5F_rect2" x="388.49" y="14.17" class="st6" width="703.84" height="586.41"/>
	<rect id="bg_x5F_rect3" x="388.49" y="609.38" class="st6" width="703.84" height="175.99"/>
</g>
</svg>
