
<svg version="1.1" id="Layer_1" xmlns="http://www.w3.org/2000/svg" xmlns:xlink="http://www.w3.org/1999/xlink" x="0px" y="0px"
	 viewBox="0 0 1195.09 623.35" style="enable-background:new 0 0 1195.09 623.35;" xml:space="preserve">
<style type="text/css">
	.fst0{fill:#82ACD9;}
	.fst1{fill:#3F3F3F;}
	.fst2{font-family:'Verdana';}
	.fst3{font-size:16px;}
	.fst4{fill:#FFFFFF;}
	.fst5{font-family:'Verdana';}
	.fst6{font-size:17px;}
</style>
<g id="tafEFTU">
	<path class="fst0" d="M1178.31,103.18H17.36c-3.08,0-5.58-3-5.58-6.68V13.18c0-3.69,2.5-6.68,5.58-6.68h1160.95
		c3.08,0,5.58,3,5.58,6.68v83.31C1183.88,100.19,1181.39,103.18,1178.31,103.18z"/>
	<text transform="matrix(1 0 0 1 19.5121 60.2217)" class="fst1 fst2 fst3">EFTU</text>
	<rect x="82.93" y="9.88" class="fst4" width="1097.69" height="89.91"/>
	
		<text id="tafEFTU_00000149370366718202831680000012647968221619660165_" transform="matrix(1 0 0 1 84.4429 26.1484)" class="fst5 fst6">TAF...</text>
</g>
<g id="tafEFTP">
	<path class="fst0" d="M1178.31,205.21H17.36c-3.08,0-5.58-3-5.58-6.68v-83.32c0-3.69,2.5-6.68,5.58-6.68h1160.95
		c3.08,0,5.58,3,5.58,6.68v83.31C1183.88,202.22,1181.39,205.21,1178.31,205.21z"/>
	<text transform="matrix(1 0 0 1 19.5121 162.2504)" class="fst1 fst2 fst3">EFTP</text>
	<rect x="82.93" y="111.91" class="fst4" width="1097.69" height="89.91"/>
	
		<text id="tafEFTP_00000066478518139645492560000017778576066010490247_" transform="matrix(1 0 0 1 84.4429 128.1771)" class="fst5 fst6">TAF...</text>
</g>
<g id="tafEETN">
	<path class="fst0" d="M1178.31,307.07H17.36c-3.08,0-5.58-3-5.58-6.68v-83.32c0-3.69,2.5-6.68,5.58-6.68h1160.95
		c3.08,0,5.58,3,5.58,6.68v83.31C1183.88,304.07,1181.39,307.07,1178.31,307.07z"/>
	<text transform="matrix(1 0 0 1 19.5121 264.1086)" class="fst1 fst2 fst3">EETN</text>
	<rect x="82.93" y="213.77" class="fst4" width="1097.69" height="89.91"/>
	
		<text id="tafEETN_00000038392022667091596380000000387382126905172655_" transform="matrix(1 0 0 1 84.4429 230.0353)" class="fst5 fst6">TAF...</text>
</g>
<g id="tafEFJY">
	<path class="fst0" d="M1178.31,408.47H17.36c-3.08,0-5.58-3-5.58-6.68v-83.32c0-3.69,2.5-6.68,5.58-6.68h1160.95
		c3.08,0,5.58,3,5.58,6.68v83.31C1183.88,405.47,1181.39,408.47,1178.31,408.47z"/>
	<text transform="matrix(1 0 0 1 19.5121 365.5044)" class="fst1 fst2 fst3">EFJY</text>
	<rect x="82.93" y="315.16" class="fst4" width="1097.69" height="89.91"/>
	
		<text id="tafEFJY_00000132049995109516147210000016733659463703172491_" transform="matrix(1 0 0 1 84.4429 331.4311)" class="fst5 fst6">TAF...</text>
</g>
<g id="tafESSA">
	<path class="fst0" d="M1178.31,509.93H17.36c-3.08,0-5.58-3-5.58-6.68v-83.32c0-3.69,2.5-6.68,5.58-6.68h1160.95
		c3.08,0,5.58,3,5.58,6.68v83.31C1183.88,506.93,1181.39,509.93,1178.31,509.93z"/>
	<text transform="matrix(1 0 0 1 19.5121 466.97)" class="fst1 fst2 fst3">ESSA</text>
	<rect x="82.93" y="416.63" class="fst4" width="1097.69" height="89.91"/>
	
		<text id="tafESSA_00000100364352521957514830000017925282420125444744_" transform="matrix(1 0 0 1 84.4429 432.8967)" class="fst5 fst6">TAF...</text>
</g>
<g id="tafULLI">
	<path class="fst0" d="M1178.31,612.58H17.36c-3.08,0-5.58-3-5.58-6.68v-83.32c0-3.69,2.5-6.68,5.58-6.68h1160.95
		c3.08,0,5.58,3,5.58,6.68v83.31C1183.88,609.59,1181.39,612.58,1178.31,612.58z"/>
	<text transform="matrix(1 0 0 1 19.5121 569.6235)" class="fst1 ffst2 fst3">ULLI</text>
	<rect x="82.93" y="519.28" class="fst4" width="1097.69" height="89.91"/>
	
		<text id="tafULLI_00000049197328933937079870000017623333555946128296_" transform="matrix(1 0 0 1 84.4429 535.5502)" class="fst5 fst6">TAF...</text>
</g>
</svg>
